# xmcd
#
# Track frame offsets:
#	150
#	3846
#	25379
#	40995
#	69574
#	92787
#	113649
#	142771
#	151754
#	188187
#	196970
#
# Disc length: 2842 seconds
#
# Revision: 1
# Processed by: cddbd v1.5.1PL2 Copyright (c) Steve Scherf et al.
# Submitted via: EasyCDDAExtractor 9.0.0.1
#
DISCID=840b180b
DTITLE=Royal Hunt - La Loco Paris 28-09-05
DYEAR=2005
DGENRE=Hard Rock
TTITLE0=Intro
TTITLE1=Paper Blood
TTITLE2=Time
TTITLE3=The Mission
TTITLE4=Never Give Up
TTITLE5=Can't Let Go
TTITLE6=Last Goodbye
TTITLE7=Follow Me
TTITLE8=Cold City Lights
TTITLE9=Martial Arts
TTITLE10=Surrender
EXTD=
EXTT0=
EXTT1=
EXTT2=
EXTT3=
EXTT4=
EXTT5=
EXTT6=
EXTT7=
EXTT8=
EXTT9=
EXTT10=
PLAYORDER=
